<svg width="25" height="25" viewBox="0 0 25 25" fill="none" xmlns="http://www.w3.org/2000/svg">
<path fill-rule="evenodd" clip-rule="evenodd" d="M20.1389 23.6112C21.0598 23.6112 21.943 23.2453 22.5942 22.5942C23.2453 21.943 23.6112 21.0598 23.6112 20.1389C23.6112 19.2181 23.2453 18.3349 22.5942 17.6837C21.943 17.0325 21.0598 16.6667 20.1389 16.6667C19.2181 16.6667 18.3349 17.0325 17.6837 17.6837C17.0325 18.3349 16.6667 19.2181 16.6667 20.1389C16.6667 21.0598 17.0325 21.943 17.6837 22.5942C18.3349 23.2453 19.2181 23.6112 20.1389 23.6112ZM20.1389 25.0001C21.4282 25.0001 22.6646 24.4879 23.5763 23.5763C24.4879 22.6646 25.0001 21.4282 25.0001 20.1389C25.0001 18.8497 24.4879 17.6133 23.5763 16.7016C22.6646 15.79 21.4282 15.2778 20.1389 15.2778C18.8497 15.2778 17.6133 15.79 16.7016 16.7016C15.79 17.6133 15.2778 18.8497 15.2778 20.1389C15.2778 21.4282 15.79 22.6646 16.7016 23.5763C17.6133 24.4879 18.8497 25.0001 20.1389 25.0001Z" fill="#861A18"/>
<path fill-rule="evenodd" clip-rule="evenodd" d="M20.1389 17.7084C20.3231 17.7084 20.4998 17.7816 20.63 17.9118C20.7602 18.042 20.8334 18.2187 20.8334 18.4029V19.8515L21.3244 20.3424C21.4509 20.4734 21.5209 20.6488 21.5193 20.8309C21.5177 21.013 21.4447 21.1872 21.3159 21.3159C21.1871 21.4447 21.013 21.5177 20.8309 21.5193C20.6488 21.5209 20.4734 21.4509 20.3424 21.3244L19.4445 20.4265V18.4029C19.4445 18.2187 19.5177 18.042 19.6479 17.9118C19.7781 17.7816 19.9548 17.7084 20.1389 17.7084ZM5.55561 11.8056H4.16672V13.1945H5.55561V11.8056ZM4.16672 10.4167C3.79836 10.4167 3.4451 10.5631 3.18463 10.8235C2.92416 11.084 2.77783 11.4373 2.77783 11.8056V13.1945C2.77783 13.5629 2.92416 13.9162 3.18463 14.1766C3.4451 14.4371 3.79836 14.5834 4.16672 14.5834H5.55561C5.92397 14.5834 6.27724 14.4371 6.5377 14.1766C6.79817 13.9162 6.9445 13.5629 6.9445 13.1945V11.8056C6.9445 11.4373 6.79817 11.084 6.5377 10.8235C6.27724 10.5631 5.92397 10.4167 5.55561 10.4167H4.16672ZM11.1112 11.8056H9.72228V13.1945H11.1112V11.8056ZM9.72228 10.4167C9.35392 10.4167 9.00065 10.5631 8.74018 10.8235C8.47972 11.084 8.33339 11.4373 8.33339 11.8056V13.1945C8.33339 13.5629 8.47972 13.9162 8.74018 14.1766C9.00065 14.4371 9.35392 14.5834 9.72228 14.5834H11.1112C11.4795 14.5834 11.8328 14.4371 12.0933 14.1766C12.3537 13.9162 12.5001 13.5629 12.5001 13.1945V11.8056C12.5001 11.4373 12.3537 11.084 12.0933 10.8235C11.8328 10.5631 11.4795 10.4167 11.1112 10.4167H9.72228ZM16.6667 11.8056H15.2778V13.1945H16.6667V11.8056ZM15.2778 10.4167C14.9095 10.4167 14.5562 10.5631 14.2957 10.8235C14.0353 11.084 13.8889 11.4373 13.8889 11.8056V13.1945C13.8889 13.5629 14.0353 13.9162 14.2957 14.1766C14.5562 14.4371 14.9095 14.5834 15.2778 14.5834H16.6667C17.0351 14.5834 17.3883 14.4371 17.6488 14.1766C17.9093 13.9162 18.0556 13.5629 18.0556 13.1945V11.8056C18.0556 11.4373 17.9093 11.084 17.6488 10.8235C17.3883 10.5631 17.0351 10.4167 16.6667 10.4167H15.2778ZM5.55561 17.3612H4.16672V18.7501H5.55561V17.3612ZM4.16672 15.9723C3.79836 15.9723 3.4451 16.1186 3.18463 16.3791C2.92416 16.6396 2.77783 16.9928 2.77783 17.3612V18.7501C2.77783 19.1184 2.92416 19.4717 3.18463 19.7322C3.4451 19.9926 3.79836 20.139 4.16672 20.139H5.55561C5.92397 20.139 6.27724 19.9926 6.5377 19.7322C6.79817 19.4717 6.9445 19.1184 6.9445 18.7501V17.3612C6.9445 16.9928 6.79817 16.6396 6.5377 16.3791C6.27724 16.1186 5.92397 15.9723 5.55561 15.9723H4.16672ZM11.1112 17.3612H9.72228V18.7501H11.1112V17.3612ZM9.72228 15.9723C9.35392 15.9723 9.00065 16.1186 8.74018 16.3791C8.47972 16.6396 8.33339 16.9928 8.33339 17.3612V18.7501C8.33339 19.1184 8.47972 19.4717 8.74018 19.7322C9.00065 19.9926 9.35392 20.139 9.72228 20.139H11.1112C11.4795 20.139 11.8328 19.9926 12.0933 19.7322C12.3537 19.4717 12.5001 19.1184 12.5001 18.7501V17.3612C12.5001 16.9928 12.3537 16.6396 12.0933 16.3791C11.8328 16.1186 11.4795 15.9723 11.1112 15.9723H9.72228Z" fill="#861A18"/>
<path fill-rule="evenodd" clip-rule="evenodd" d="M1.38889 4.16659C1.38889 3.98241 1.46205 3.80577 1.59229 3.67554C1.72252 3.54531 1.89916 3.47214 2.08333 3.47214H5.55556V2.08325H2.08333C1.5308 2.08325 1.0009 2.30275 0.610194 2.69345C0.219493 3.08415 0 3.61405 0 4.16659V20.8333C0 21.3858 0.219493 21.9157 0.610194 22.3064C1.0009 22.6971 1.5308 22.9166 2.08333 22.9166H16.1493C15.8532 22.4924 15.6269 22.0235 15.4792 21.5277H2.08333C1.89916 21.5277 1.72252 21.4545 1.59229 21.3243C1.46205 21.1941 1.38889 21.0174 1.38889 20.8333V4.16659ZM19.4444 15.3263C19.9051 15.2604 20.3727 15.2604 20.8333 15.3263V4.16659C20.8333 3.61405 20.6138 3.08415 20.2231 2.69345C19.8324 2.30275 19.3025 2.08325 18.75 2.08325H16.6667V3.47214H18.75C18.9342 3.47214 19.1108 3.54531 19.241 3.67554C19.3713 3.80577 19.4444 3.98241 19.4444 4.16659V15.3263ZM6.94444 3.47214H14.2799V2.08325H6.94444V3.47214Z" fill="#861A18"/>
<path fill-rule="evenodd" clip-rule="evenodd" d="M15.2777 2.08325H6.94434V4.16659C6.94434 4.35076 6.87117 4.5274 6.74094 4.65763C6.6107 4.78786 6.43407 4.86103 6.24989 4.86103C6.06571 4.86103 5.88908 4.78786 5.75885 4.65763C5.62861 4.5274 5.55545 4.35076 5.55545 4.16659V2.08325H2.08322C1.71487 2.08325 1.3616 2.22958 1.10113 2.49005C0.840665 2.75052 0.694336 3.10378 0.694336 3.47214V6.94436C0.694336 7.31272 0.840665 7.66599 1.10113 7.92646C1.3616 8.18692 1.71487 8.33325 2.08322 8.33325H18.7499C19.1182 8.33325 19.4715 8.18692 19.732 7.92646C19.9925 7.66599 20.1388 7.31272 20.1388 6.94436V3.47214C20.1388 3.10378 19.9925 2.75052 19.732 2.49005C19.4715 2.22958 19.1182 2.08325 18.7499 2.08325H16.6666V4.16659C16.6666 4.35076 16.5934 4.5274 16.4632 4.65763C16.3329 4.78786 16.1563 4.86103 15.9721 4.86103C15.7879 4.86103 15.6113 4.78786 15.4811 4.65763C15.3508 4.5274 15.2777 4.35076 15.2777 4.16659V2.08325Z" fill="#861A18"/>
<path fill-rule="evenodd" clip-rule="evenodd" d="M20.8336 8.33322H1.38916V6.94434H20.8336V8.33322Z" fill="#861A18"/>
<path d="M4.1665 0.694444C4.1665 0.510266 4.23967 0.333632 4.3699 0.203398C4.50014 0.0731646 4.67677 0 4.86095 0C5.04513 0 5.22176 0.0731646 5.35199 0.203398C5.48223 0.333632 5.55539 0.510266 5.55539 0.694444V3.47222C5.55539 3.6564 5.48223 3.83303 5.35199 3.96327C5.22176 4.0935 5.04513 4.16667 4.86095 4.16667C4.67677 4.16667 4.50014 4.0935 4.3699 3.96327C4.23967 3.83303 4.1665 3.6564 4.1665 3.47222V0.694444ZM13.8887 0.694444C13.8887 0.510266 13.9619 0.333632 14.0921 0.203398C14.2224 0.0731646 14.399 0 14.5832 0C14.7673 0 14.944 0.0731646 15.0742 0.203398C15.2045 0.333632 15.2776 0.510266 15.2776 0.694444V3.47222C15.2776 3.6564 15.2045 3.83303 15.0742 3.96327C14.944 4.0935 14.7673 4.16667 14.5832 4.16667C14.399 4.16667 14.2224 4.0935 14.0921 3.96327C13.9619 3.83303 13.8887 3.6564 13.8887 3.47222V0.694444Z" fill="#861A18"/>
</svg>
