<svg width="14" height="15" viewBox="0 0 14 15" fill="none" xmlns="http://www.w3.org/2000/svg">
<path d="M5.66667 4.95833H7.08333V9.20833H5.66667V4.95833ZM6.375 13.4583C3.63375 13.4583 1.41667 11.2413 1.41667 8.5C1.41667 5.75875 3.63375 3.54167 6.375 3.54167C9.11625 3.54167 11.3333 5.75875 11.3333 8.5C11.8292 8.5 12.2967 8.59208 12.75 8.74792V8.5C12.75 6.99833 12.2258 5.61708 11.3546 4.52625L12.3604 3.52042C12.0417 3.15917 11.7229 2.83333 11.3617 2.52167L10.3558 3.54167C9.25792 2.64917 7.87667 2.125 6.375 2.125C4.68425 2.125 3.06274 2.79665 1.86719 3.99219C0.67165 5.18774 0 6.80924 0 8.5C0 10.1908 0.67165 11.8123 1.86719 13.0078C3.06274 14.2033 4.68425 14.875 6.375 14.875C6.79292 14.875 7.19667 14.8325 7.58625 14.7546C7.36667 14.3438 7.21083 13.8833 7.14 13.3946C6.885 13.43 6.63708 13.4583 6.375 13.4583ZM8.5 0H4.25V1.41667H8.5V0ZM9.5625 10.9792V14.5208H13.1042V10.9792H9.5625Z" fill="#666666"/>
</svg>
