<svg width="14" height="8" viewBox="0 0 14 8" fill="none" xmlns="http://www.w3.org/2000/svg">
<path d="M4.375 0H14V8H4.375V0ZM13.125 7.11111V0.888889H5.25V7.11111H13.125ZM0.875 4.44444V3.55556H3.5V4.44444H0.875ZM0 2.66667V1.77778H3.5V2.66667H0ZM1.75 6.22222V5.33333H3.5V6.22222H1.75ZM12.25 1.77778V2.66667H6.125V1.77778H12.25ZM9.625 6.22222V3.55556H12.25V6.22222H9.625ZM10.5 4.44444V5.33333H11.375V4.44444H10.5ZM8.75 5.33333V6.22222H6.125V5.33333H8.75ZM8.75 3.55556V4.44444H6.125V3.55556H8.75Z" fill="#666666"/>
</svg>
