<svg width="28" height="29" viewBox="0 0 28 29" fill="none" xmlns="http://www.w3.org/2000/svg">
<path d="M23.5682 18.4229V26.3639C23.5682 26.7781 23.2324 27.1139 22.8182 27.1139H17.8864V21.3212C17.8864 20.0786 16.879 19.0712 15.6364 19.0712H13.0909C11.8483 19.0712 10.8409 20.0786 10.8409 21.3212V27.1139H5.90911C5.4949 27.1139 5.15911 26.7781 5.15911 26.3639V18.4229C5.15911 17.6897 4.56472 17.0953 3.83151 17.0953H3.79846C2.79266 17.0953 1.97729 16.28 1.97729 15.2742C1.97729 14.8065 2.15718 14.3568 2.47968 14.0182L13.8283 2.10215C14.1228 1.79295 14.6156 1.79163 14.9117 2.09924L26.2123 13.838C26.5573 14.1963 26.75 14.6745 26.75 15.1719V15.2411C26.75 16.2652 25.9199 17.0953 24.8958 17.0953C24.1626 17.0953 23.5682 17.6898 23.5682 18.4229Z" stroke="#C1094B" stroke-opacity="0.44" stroke-width="2.5"/>
</svg>
