<svg width="21" height="21" viewBox="0 0 21 21" fill="none" xmlns="http://www.w3.org/2000/svg">
<path fill-rule="evenodd" clip-rule="evenodd" d="M10.4189 1.7395C14.5611 1.7395 17.9189 5.06094 17.9189 9.15814C17.9189 11.8694 15.6503 14.736 11.2092 17.8588L10.4189 18.4062L9.94211 18.0771C5.2943 14.8694 2.91895 11.9324 2.91895 9.15814C2.91895 5.06094 6.27681 1.7395 10.4189 1.7395ZM10.4189 3.38808C7.19728 3.38808 4.58561 5.97142 4.58561 9.15813C4.58561 11.1602 6.49954 13.6032 10.4189 16.391C14.3383 13.6032 16.2523 11.1602 16.2523 9.15813C16.2523 5.97142 13.6406 3.38808 10.4189 3.38808ZM10.4189 5.07284C12.2599 5.07284 13.7523 6.56522 13.7523 8.40617C13.7523 10.2471 12.2599 11.7395 10.4189 11.7395C8.57799 11.7395 7.08561 10.2471 7.08561 8.40617C7.08561 6.56522 8.57799 5.07284 10.4189 5.07284ZM10.4189 6.7395C9.49847 6.7395 8.75228 7.48569 8.75228 8.40617C8.75228 9.32664 9.49847 10.0728 10.4189 10.0728C11.3394 10.0728 12.0856 9.32664 12.0856 8.40617C12.0856 7.48569 11.3394 6.7395 10.4189 6.7395Z" fill="black"/>
</svg>
