<svg width="11" height="18" viewBox="0 0 11 18" fill="none" xmlns="http://www.w3.org/2000/svg">
<path fill-rule="evenodd" clip-rule="evenodd" d="M5.3125 0.739502C8.07392 0.739502 10.3125 2.97808 10.3125 5.7395V12.4062C10.3125 15.1676 8.07392 17.4062 5.3125 17.4062C2.55108 17.4062 0.3125 15.1676 0.3125 12.4062V5.7395C0.3125 2.97808 2.55108 0.739502 5.3125 0.739502ZM5.31251 2.40616C3.47156 2.40616 1.97918 3.89855 1.97918 5.7395V12.4062C1.97918 14.2471 3.47156 15.7395 5.31251 15.7395C7.15346 15.7395 8.64585 14.2471 8.64585 12.4062V5.7395C8.64585 3.89855 7.15346 2.40616 5.31251 2.40616ZM5.31252 4.90617C5.77275 4.90617 6.14585 5.27926 6.14585 5.7395V7.40617C6.14585 7.8664 5.77275 8.2395 5.31252 8.2395C4.85228 8.2395 4.47918 7.8664 4.47918 7.40617V5.7395C4.47918 5.27926 4.85228 4.90617 5.31252 4.90617Z" fill="black"/>
</svg>
