<svg width="34" height="34" viewBox="0 0 34 34" fill="none" xmlns="http://www.w3.org/2000/svg">
<g clip-path="url(#clip0_1_16226)">
<path fill-rule="evenodd" clip-rule="evenodd" d="M7.15132 21.4258C7.1517 21.8937 7.05978 22.3571 6.88084 22.7895C6.70191 23.2218 6.43945 23.6146 6.10851 23.9455C5.77757 24.2763 5.38464 24.5386 4.95221 24.7173C4.51978 24.8961 4.05633 24.9878 3.58841 24.9873C3.12072 24.9875 2.65758 24.8954 2.22547 24.7165C1.79337 24.5376 1.40077 24.2752 1.07013 23.9445C0.739489 23.6137 0.477292 23.221 0.298531 22.7888C0.119769 22.3566 0.027949 21.8934 0.0283214 21.4258C0.0279488 20.958 0.119815 20.4947 0.298666 20.0624C0.477516 19.6301 0.73984 19.2374 1.07063 18.9066C1.40142 18.5758 1.79418 18.3135 2.22645 18.1346C2.65872 17.9558 3.12201 17.8639 3.58982 17.8643H7.15274V21.4258H7.15132ZM8.93207 21.4258C8.9317 20.958 9.02357 20.4947 9.20242 20.0624C9.38127 19.6301 9.64359 19.2374 9.97438 18.9066C10.3052 18.5758 10.6979 18.3135 11.1302 18.1346C11.5625 17.9558 12.0258 17.8639 12.4936 17.8643C12.9614 17.8639 13.4247 17.9558 13.8569 18.1346C14.2892 18.3135 14.682 18.5758 15.0128 18.9066C15.3436 19.2374 15.6059 19.6301 15.7847 20.0624C15.9636 20.4947 16.0554 20.958 16.0551 21.4258V30.3309C16.0554 30.7987 15.9636 31.262 15.7847 31.6943C15.6059 32.1266 15.3436 32.5193 15.0128 32.8501C14.682 33.1809 14.2892 33.4432 13.8569 33.6221C13.4247 33.8009 12.9614 33.8928 12.4936 33.8924C12.0258 33.8928 11.5625 33.8009 11.1302 33.6221C10.6979 33.4432 10.3052 33.1809 9.97438 32.8501C9.64359 32.5193 9.38127 32.1266 9.20242 31.6943C9.02357 31.262 8.9317 30.7987 8.93207 30.3309V21.4258Z" fill="#E01E5A"/>
<path fill-rule="evenodd" clip-rule="evenodd" d="M12.4936 7.12442C12.0257 7.12479 11.5623 7.03288 11.1299 6.85394C10.6975 6.675 10.3047 6.41255 9.97389 6.08161C9.64308 5.75067 9.38079 5.35774 9.20202 4.9253C9.02325 4.49287 8.93153 4.02943 8.93208 3.5615C8.93171 3.09369 9.02358 2.6304 9.20243 2.19813C9.38128 1.76586 9.6436 1.3731 9.97439 1.04231C10.3052 0.711519 10.6979 0.449195 11.1302 0.270345C11.5625 0.0914951 12.0258 -0.000371478 12.4936 1.12892e-06C12.9614 -0.000371478 13.4247 0.0914951 13.857 0.270345C14.2892 0.449195 14.682 0.711519 15.0128 1.04231C15.3436 1.3731 15.6059 1.76586 15.7847 2.19813C15.9636 2.6304 16.0555 3.09369 16.0551 3.5615V7.12583H12.495L12.4936 7.12442ZM12.4936 8.93208C12.9614 8.93171 13.4247 9.02358 13.857 9.20243C14.2892 9.38128 14.682 9.6436 15.0128 9.97439C15.3436 10.3052 15.6059 10.6979 15.7847 11.1302C15.9636 11.5625 16.0555 12.0258 16.0551 12.4936C16.0555 12.9614 15.9636 13.4247 15.7847 13.857C15.6059 14.2892 15.3436 14.682 15.0128 15.0128C14.682 15.3436 14.2892 15.6059 13.857 15.7847C13.4247 15.9636 12.9614 16.0555 12.4936 16.0551H3.5615C3.09381 16.0555 2.63064 15.9636 2.19846 15.7849C1.76628 15.6061 1.37358 15.3439 1.04281 15.0133C0.712039 14.6826 0.449686 14.29 0.270752 13.8579C0.0918189 13.4258 -0.000185201 12.9627 1.12892e-06 12.495C-0.000371478 12.0272 0.0914951 11.5639 0.270345 11.1316C0.449195 10.6994 0.711519 10.3066 1.04231 9.97581C1.3731 9.64502 1.76586 9.3827 2.19813 9.20384C2.6304 9.02499 3.09369 8.93313 3.5615 8.9335H12.495L12.4936 8.93208Z" fill="#36C5F0"/>
<path fill-rule="evenodd" clip-rule="evenodd" d="M26.7675 12.4936C26.7671 12.0257 26.859 11.5623 27.038 11.1299C27.2169 10.6975 27.4793 10.3047 27.8103 9.97389C28.1412 9.64308 28.5342 9.38079 28.9666 9.20202C29.399 9.02326 29.8625 8.93153 30.3304 8.93209C30.7982 8.93171 31.2615 9.02358 31.6938 9.20243C32.126 9.38128 32.5188 9.6436 32.8496 9.97439C33.1804 10.3052 33.4427 10.6979 33.6215 11.1302C33.8004 11.5625 33.8923 12.0258 33.8919 12.4936C33.8923 12.9614 33.8004 13.4247 33.6215 13.857C33.4427 14.2892 33.1804 14.682 32.8496 15.0128C32.5188 15.3436 32.126 15.6059 31.6938 15.7847C31.2615 15.9636 30.7982 16.0555 30.3304 16.0551H26.7675V12.495V12.4936ZM24.9867 12.4936C24.9871 12.9614 24.8952 13.4247 24.7164 13.857C24.5375 14.2892 24.2752 14.682 23.9444 15.0128C23.6136 15.3436 23.2209 15.6059 22.7886 15.7847C22.3563 15.9636 21.893 16.0555 21.4252 16.0551C20.9573 16.0556 20.4939 15.9639 20.0614 15.7851C19.629 15.6064 19.2361 15.3441 18.9051 15.0133C18.5742 14.6825 18.3117 14.2896 18.1328 13.8573C17.9538 13.4249 17.8619 12.9615 17.8623 12.4936V3.5615C17.8619 3.09358 17.9538 2.63017 18.1328 2.19781C18.3117 1.76545 18.5742 1.37262 18.9051 1.04181C19.2361 0.711 19.629 0.448706 20.0614 0.269939C20.4939 0.0911726 20.9573 -0.000556439 21.4252 2.5394e-06C21.893 -0.000370067 22.3563 0.0914965 22.7886 0.270347C23.2209 0.449197 23.6136 0.711521 23.9444 1.04231C24.2752 1.3731 24.5375 1.76587 24.7164 2.19813C24.8952 2.6304 24.9871 3.09369 24.9867 3.5615V12.495V12.4936Z" fill="#2EB67D"/>
<path fill-rule="evenodd" clip-rule="evenodd" d="M21.4258 26.768C21.8936 26.7676 22.3569 26.8595 22.7891 27.0384C23.2214 27.2172 23.6142 27.4795 23.945 27.8103C24.2757 28.1411 24.5381 28.5339 24.7169 28.9661C24.8958 29.3984 24.9876 29.8617 24.9873 30.3295C24.9878 30.7974 24.8961 31.2609 24.7173 31.6933C24.5386 32.1258 24.2763 32.5187 23.9455 32.8496C23.6146 33.1806 23.2218 33.443 22.7895 33.622C22.3571 33.8009 21.8937 33.8928 21.4258 33.8924C20.9578 33.8928 20.4944 33.8009 20.0621 33.622C19.6297 33.443 19.2369 33.1806 18.9061 32.8496C18.5753 32.5187 18.313 32.1258 18.1342 31.6933C17.9554 31.2609 17.8637 30.7974 17.8643 30.3295V26.768H21.4258V26.768ZM21.4258 24.9873C20.958 24.9876 20.4947 24.8958 20.0624 24.7169C19.6301 24.5381 19.2374 24.2757 18.9066 23.945C18.5758 23.6142 18.3135 23.2214 18.1346 22.7891C17.9558 22.3569 17.8639 21.8936 17.8643 21.4258C17.8639 20.958 17.9558 20.4947 18.1346 20.0624C18.3135 19.6301 18.5758 19.2374 18.9066 18.9066C19.2374 18.5758 19.6301 18.3135 20.0624 18.1346C20.4947 17.9558 20.958 17.8639 21.4258 17.8643H30.3579C30.8257 17.8639 31.2889 17.9558 31.7212 18.1346C32.1535 18.3135 32.5463 18.5758 32.877 18.9066C33.2078 19.2374 33.4702 19.6301 33.649 20.0624C33.8279 20.4947 33.9197 20.958 33.9194 21.4258C33.9197 21.8936 33.8279 22.3569 33.649 22.7891C33.4702 23.2214 33.2078 23.6142 32.877 23.945C32.5463 24.2757 32.1535 24.5381 31.7212 24.7169C31.2889 24.8958 30.8257 24.9876 30.3579 24.9873H21.4258V24.9873Z" fill="#ECB22E"/>
</g>
<defs>
<clipPath id="clip0_1_16226">
<rect width="34" height="34" fill="white"/>
</clipPath>
</defs>
</svg>
