<svg width="29" height="32" viewBox="0 0 29 32" fill="none" xmlns="http://www.w3.org/2000/svg">
<path fill-rule="evenodd" clip-rule="evenodd" d="M20.3469 0C20.9549 0 21.4483 0.490146 21.4483 1.09407L21.449 2.33083C23.5932 2.47686 25.374 3.20644 26.6344 4.46105C28.0104 5.83375 28.7344 7.80746 28.7271 10.175V23.4834C28.7271 28.344 25.6197 31.3636 20.6193 31.3636H8.19855C3.19822 31.3636 0.0908203 28.3017 0.0908203 23.3725V10.1721C0.0908203 5.5875 2.86201 2.64466 7.38159 2.33133L7.38249 1.09407C7.38249 0.490146 7.87591 0 8.48388 0C9.09185 0 9.58528 0.490146 9.58528 1.09407L9.58484 2.30339H19.2448L19.2455 1.09407C19.2455 0.490146 19.739 0 20.3469 0ZM26.5243 12.9889H2.29361V23.3725C2.29361 27.1157 4.39066 29.1755 8.19855 29.1755H20.6193C24.4272 29.1755 26.5243 27.1536 26.5243 23.4834L26.5243 12.9889ZM20.9456 22.1679C21.5536 22.1679 22.047 22.658 22.047 23.2619C22.047 23.8659 21.5536 24.356 20.9456 24.356C20.3377 24.356 19.8384 23.8659 19.8384 23.2619C19.8384 22.658 20.3245 22.1679 20.9324 22.1679H20.9456ZM14.4291 22.1679C15.037 22.1679 15.5305 22.658 15.5305 23.2619C15.5305 23.8659 15.037 24.356 14.4291 24.356C13.8211 24.356 13.3218 23.8659 13.3218 23.2619C13.3218 22.658 13.8079 22.1679 14.4158 22.1679H14.4291ZM7.89882 22.1679C8.50679 22.1679 9.00022 22.658 9.00022 23.2619C9.00022 23.8659 8.50679 24.356 7.89882 24.356C7.29085 24.356 6.79009 23.8659 6.79009 23.2619C6.79009 22.658 7.27764 22.1679 7.88561 22.1679H7.89882ZM20.9456 16.4981C21.5536 16.4981 22.047 16.9882 22.047 17.5921C22.047 18.1961 21.5536 18.6862 20.9456 18.6862C20.3377 18.6862 19.8384 18.1961 19.8384 17.5921C19.8384 16.9882 20.3245 16.4981 20.9324 16.4981H20.9456ZM14.4291 16.4981C15.037 16.4981 15.5305 16.9882 15.5305 17.5921C15.5305 18.1961 15.037 18.6862 14.4291 18.6862C13.8211 18.6862 13.3218 18.1961 13.3218 17.5921C13.3218 16.9882 13.8079 16.4981 14.4158 16.4981H14.4291ZM7.89882 16.4981C8.50679 16.4981 9.00022 16.9882 9.00022 17.5921C9.00022 18.1961 8.50679 18.6862 7.89882 18.6862C7.29085 18.6862 6.79009 18.1961 6.79009 17.5921C6.79009 16.9882 7.27764 16.4981 7.88561 16.4981H7.89882ZM19.2448 4.49154H9.58484L9.58528 5.89488C9.58528 6.4988 9.09185 6.98895 8.48388 6.98895C7.87591 6.98895 7.38249 6.4988 7.38249 5.89488L7.38171 4.52466C4.09187 4.79919 2.29361 6.78014 2.29361 10.1721V10.8007H26.5243L26.5243 10.1721C26.5302 8.37055 26.0426 6.97013 25.0748 6.00735C24.2253 5.16098 22.9834 4.65551 21.4496 4.52536L21.4483 5.89488C21.4483 6.4988 20.9549 6.98895 20.3469 6.98895C19.739 6.98895 19.2455 6.4988 19.2455 5.89488L19.2448 4.49154Z" fill="#C1094B"/>
</svg>
