<?xml version="1.0" encoding="UTF-8" standalone="no"?>
<svg
   version="1.1"
   width="259.20001"
   height="259.19971"
   id="svg133"
   viewBox="0 0 259.20001 259.19971"
   sodipodi:docname="Sterling Staffing.cdr"
   xmlns:inkscape="http://www.inkscape.org/namespaces/inkscape"
   xmlns:sodipodi="http://sodipodi.sourceforge.net/DTD/sodipodi-0.dtd"
   xmlns="http://www.w3.org/2000/svg"
   xmlns:svg="http://www.w3.org/2000/svg">
  <defs
     id="defs137" />
  <sodipodi:namedview
     id="namedview135"
     pagecolor="#ffffff"
     bordercolor="#666666"
     borderopacity="1.0"
     inkscape:pageshadow="2"
     inkscape:pageopacity="0.0"
     inkscape:pagecheckerboard="0" />
  <g
     id="Layer1000">
    <path
       d="m 127.0852,153.8672 c -0.3324,-0.361 -0.6868,-0.6274 -1.0633,-0.7998 -0.3765,-0.1727 -0.7926,-0.2587 -1.2483,-0.2587 -0.3671,0 -0.7255,0.0743 -1.0754,0.223 -0.3496,0.1487 -0.6523,0.3561 -0.9088,0.6219 -0.2659,0.2753 -0.4652,0.583 -0.5982,0.9231 -0.1328,0.3402 -0.1993,0.716 -0.1993,1.1276 0,0.3226 0.0396,0.62 0.1185,0.8922 0.0791,0.2724 0.1979,0.5224 0.3564,0.7502 0.2781,0.3953 0.6209,0.6998 1.0276,0.9137 0.4064,0.2135 0.8455,0.3204 1.3172,0.3204 0.443,0 0.8542,-0.092 1.234,-0.2753 0.3798,-0.1838 0.7263,-0.4573 1.0396,-0.8212 v 1.0965 c -0.345,0.2498 -0.7161,0.4391 -1.113,0.5673 -0.3973,0.1282 -0.8079,0.1922 -1.232,0.1922 -0.3669,0 -0.7245,-0.0546 -1.0728,-0.164 -0.348,-0.109 -0.6738,-0.2681 -0.9776,-0.4768 -0.5064,-0.3515 -0.8933,-0.7832 -1.1608,-1.296 -0.2674,-0.5128 -0.4011,-1.0757 -0.4011,-1.6898 0,-0.5349 0.0896,-1.0214 0.2684,-1.4597 0.1785,-0.4385 0.4515,-0.836 0.8185,-1.1937 0.3546,-0.3418 0.747,-0.5975 1.1774,-0.7666 0.4304,-0.1695 0.9003,-0.2539 1.4099,-0.2539 0.4019,0 0.7911,0.0607 1.1675,0.1827 0.3769,0.1218 0.7485,0.3106 1.1156,0.5671 z"
       style="fill:#8a1617;fill-rule:evenodd"
       id="path2" />
    <path
       d="m 128.6613,156.9952 c 0,0.459 0.1536,0.8475 0.4603,1.1653 0.307,0.318 0.679,0.4771 1.1156,0.4771 0.4336,0 0.8023,-0.1591 1.1058,-0.4771 0.3041,-0.3178 0.456,-0.7063 0.456,-1.1653 0,-0.4589 -0.1519,-0.8471 -0.456,-1.1652 -0.3035,-0.3181 -0.6722,-0.4771 -1.1058,-0.4771 -0.4398,0 -0.8124,0.159 -1.1179,0.4771 -0.3054,0.3181 -0.458,0.7063 -0.458,1.1652 z m -0.788,0 c 0,-0.3194 0.0584,-0.6209 0.1755,-0.9042 0.1172,-0.2831 0.288,-0.5356 0.5129,-0.757 0.2246,-0.2216 0.4794,-0.3901 0.7641,-0.5057 0.2849,-0.1155 0.5887,-0.1729 0.9114,-0.1729 0.3164,0 0.616,0.0584 0.8994,0.1755 0.2833,0.1169 0.5404,0.2879 0.7712,0.5125 0.2249,0.2182 0.3957,0.4691 0.5132,0.7524 0.1168,0.2834 0.1755,0.583 0.1755,0.8994 0,0.3165 -0.0587,0.6148 -0.1755,0.8949 -0.1175,0.2801 -0.2883,0.5294 -0.5132,0.7475 -0.2308,0.2278 -0.4895,0.4018 -0.7757,0.5222 -0.2866,0.1205 -0.5849,0.1805 -0.8949,0.1805 -0.3197,0 -0.6226,-0.0594 -0.9088,-0.1782 -0.2866,-0.1185 -0.5421,-0.2885 -0.7667,-0.5102 -0.2249,-0.2278 -0.3957,-0.481 -0.5129,-0.7595 -0.1171,-0.2785 -0.1755,-0.5775 -0.1755,-0.8972 z"
       style="fill:#8a1617;fill-rule:evenodd"
       id="path4" />
    <path
       d="m 133.56,159.1551 v -4.3432 h 0.7264 v 0.6692 c 0.1866,-0.2785 0.4112,-0.4859 0.6738,-0.6218 0.2629,-0.136 0.5667,-0.2042 0.9114,-0.2042 0.5129,0 0.9135,0.136 1.201,0.4083 0.2882,0.272 0.432,0.6501 0.432,1.1345 v 2.9572 h -0.7595 v -2.5587 c 0,-0.4397 -0.0925,-0.7666 -0.2776,-0.9799 -0.1849,-0.2138 -0.4706,-0.3207 -0.8568,-0.3207 -0.2214,0 -0.4233,0.0402 -0.6053,0.1211 -0.1818,0.0808 -0.3331,0.1953 -0.4532,0.344 -0.0918,0.1143 -0.1577,0.2438 -0.197,0.3896 -0.0396,0.1454 -0.059,0.3986 -0.059,0.7595 v 2.2451 z"
       style="fill:#8a1617;fill-rule:evenodd"
       id="path6" />
    <path
       d="m 138.7818,159.1551 v -4.3432 h 0.7264 v 0.6692 c 0.1867,-0.2785 0.4112,-0.4859 0.6738,-0.6218 0.2626,-0.136 0.5671,-0.2042 0.9117,-0.2042 0.5122,0 0.9131,0.136 1.2007,0.4083 0.2879,0.272 0.4324,0.6501 0.4324,1.1345 v 2.9572 h -0.7596 v -2.5587 c 0,-0.4397 -0.0925,-0.7666 -0.2775,-0.9799 -0.1856,-0.2138 -0.4709,-0.3207 -0.8572,-0.3207 -0.2211,0 -0.4233,0.0402 -0.6054,0.1211 -0.1817,0.0808 -0.333,0.1953 -0.453,0.344 -0.0919,0.1143 -0.1578,0.2438 -0.1971,0.3896 -0.0396,0.1454 -0.0591,0.3986 -0.0591,0.7595 v 2.2451 z"
       style="fill:#8a1617;fill-rule:evenodd"
       id="path8" />
    <path
       d="m 147.0843,156.4922 c -0.0254,-0.383 -0.1529,-0.6781 -0.3821,-0.8855 -0.2295,-0.2071 -0.5437,-0.3109 -0.9423,-0.3109 -0.3605,0 -0.6614,0.1084 -0.9016,0.3252 -0.2409,0.2168 -0.3797,0.5073 -0.4181,0.8712 z m 0.7974,0.6027 h -3.4415 v 0.0666 c 0,0.4651 0.1331,0.841 0.3989,1.1272 0.2656,0.2864 0.6125,0.4298 1.0394,0.4298 0.2914,0 0.5537,-0.0786 0.788,-0.235 0.2343,-0.1568 0.4414,-0.3934 0.6219,-0.7098 l 0.5648,0.3797 c -0.2184,0.3924 -0.4967,0.6885 -0.8355,0.8878 -0.3385,0.1992 -0.7309,0.2989 -1.1769,0.2989 -0.6615,0 -1.1964,-0.2182 -1.6044,-0.655 -0.4083,-0.4366 -0.6125,-1.0095 -0.6125,-1.7183 0,-0.6804 0.2025,-1.2373 0.6076,-1.671 0.4051,-0.4333 0.9257,-0.6502 1.5616,-0.6502 0.6423,0 1.151,0.2058 1.5262,0.6171 0.3748,0.4112 0.5624,0.9731 0.5624,1.6852 z"
       style="fill:#8a1617;fill-rule:evenodd"
       id="path10" />
    <path
       d="m 152.14,158.125 v 0.8641 c -0.1961,0.1168 -0.4171,0.2045 -0.6622,0.2632 -0.2454,0.0584 -0.5102,0.088 -0.7952,0.088 -0.6709,0 -1.2114,-0.2129 -1.621,-0.6385 -0.4099,-0.4258 -0.6147,-0.985 -0.6147,-1.678 0,-0.6962 0.2119,-1.2653 0.6362,-1.7063 0.4239,-0.4418 0.9666,-0.6621 1.6281,-0.6621 0.2405,0 0.4751,0.0253 0.705,0.0755 0.2294,0.0507 0.4453,0.1253 0.6478,0.223 v 0.7978 c -0.1898,-0.1236 -0.3863,-0.2174 -0.5888,-0.2826 -0.2025,-0.0646 -0.4083,-0.0971 -0.617,-0.0971 -0.4872,0 -0.878,0.1526 -1.1724,0.458 -0.2943,0.3054 -0.4414,0.7111 -0.4414,1.2175 0,0.4463 0.1477,0.8196 0.4437,1.1201 0.2957,0.3009 0.667,0.4512 1.1133,0.4512 0.2247,0 0.4444,-0.0396 0.6596,-0.1188 0.2152,-0.0789 0.4417,-0.2042 0.679,-0.375 z"
       style="fill:#8a1617;fill-rule:evenodd"
       id="path12" />
    <path
       d="m 153.094,155.4242 h -0.7971 v -0.6125 h 0.7971 v -1.7514 h 0.7599 v 1.7514 h 0.7971 v 0.6125 h -0.7971 v 3.731 h -0.7599 z"
       style="fill:#8a1617;fill-rule:evenodd"
       id="path14" />
    <path
       d="m 155.3395,154.8119 h 0.7501 v 4.3432 h -0.7501 z m -0.1755,-2.0935 c 0,-0.1487 0.0529,-0.276 0.1587,-0.3821 0.1061,-0.1058 0.2353,-0.159 0.3869,-0.159 0.1487,0 0.2762,0.0539 0.382,0.1613 0.1062,0.1078 0.1591,0.2372 0.1591,0.3891 0,0.149 -0.0523,0.2756 -0.1565,0.3801 -0.1042,0.1043 -0.2327,0.1565 -0.3846,0.1565 -0.1516,0 -0.2808,-0.0522 -0.3869,-0.1565 -0.1058,-0.1045 -0.1587,-0.2343 -0.1587,-0.3894 z"
       style="fill:#8a1617;fill-rule:evenodd"
       id="path16" />
    <path
       d="m 157.4617,159.1551 v -4.3432 h 0.726 v 0.6692 c 0.1869,-0.2785 0.4115,-0.4859 0.6741,-0.6218 0.2626,-0.136 0.5668,-0.2042 0.9114,-0.2042 0.5126,0 0.9131,0.136 1.201,0.4083 0.2879,0.272 0.4321,0.6501 0.4321,1.1345 v 2.9572 h -0.7596 v -2.5587 c 0,-0.4397 -0.0925,-0.7666 -0.2775,-0.9799 -0.1853,-0.2138 -0.4709,-0.3207 -0.8572,-0.3207 -0.2211,0 -0.4229,0.0402 -0.605,0.1211 -0.1818,0.0808 -0.3331,0.1953 -0.4531,0.344 -0.0922,0.1143 -0.1578,0.2438 -0.1974,0.3896 -0.0393,0.1454 -0.0591,0.3986 -0.0591,0.7595 v 2.2451 z"
       style="fill:#8a1617;fill-rule:evenodd"
       id="path18" />
    <path
       d="m 166.0059,156.9952 c 0,-0.4872 -0.1327,-0.8796 -0.3989,-1.1769 -0.2658,-0.2976 -0.6154,-0.4463 -1.049,-0.4463 -0.446,0 -0.7942,0.1377 -1.0442,0.4129 -0.2499,0.2752 -0.3749,0.6598 -0.3749,1.1535 0,0.5252 0.1259,0.9303 0.3772,1.2149 0.2515,0.285 0.6082,0.4275 1.0705,0.4275 0.443,0 0.7906,-0.1403 1.0419,-0.4203 0.2515,-0.2798 0.3774,-0.6684 0.3774,-1.1653 z m 0.7216,-2.1834 v 4.2673 c 0,0.4715 -0.0319,0.8069 -0.0948,1.0064 -0.0637,0.1993 -0.1682,0.3782 -0.3135,0.5362 -0.2026,0.2185 -0.4502,0.3814 -0.7427,0.4892 -0.2931,0.1074 -0.6294,0.1613 -1.0092,0.1613 -0.6578,0 -1.1713,-0.1503 -1.5401,-0.4508 -0.3686,-0.301 -0.5608,-0.7264 -0.5768,-1.277 h 0.8356 v 0.0569 c 0,0.3259 0.1122,0.5774 0.3369,0.7546 0.2249,0.1772 0.5426,0.2658 0.9542,0.2658 0.2976,0 0.5515,-0.0484 0.7618,-0.1447 0.2106,-0.0964 0.371,-0.2396 0.482,-0.4295 0.0666,-0.1077 0.1136,-0.2327 0.1422,-0.3748 0.0285,-0.1425 0.0428,-0.3467 0.0428,-0.6125 v -0.3418 -0.3892 c -0.1678,0.31 -0.3876,0.5483 -0.6598,0.7144 -0.2721,0.1659 -0.5778,0.2493 -0.916,0.2493 -0.6236,0 -1.126,-0.2123 -1.5074,-0.6361 -0.3813,-0.4239 -0.5719,-0.9875 -0.5719,-1.6898 0,-0.7089 0.1854,-1.2714 0.5554,-1.6878 0.3703,-0.4158 0.8653,-0.6238 1.4856,-0.6238 0.3609,0 0.6773,0.0814 0.9494,0.244 0.2723,0.1633 0.4875,0.4028 0.6455,0.7193 v -0.8069 z"
       style="fill:#8a1617;fill-rule:evenodd"
       id="path20" />
    <path
       d="m 172.0015,159.1551 v -6.1612 h -1.9651 v -0.7881 h 4.7564 v 0.7881 h -1.9559 v 6.1612 z"
       style="fill:#8a1617;fill-rule:evenodd"
       id="path22" />
    <path
       d="m 175.4431,159.1551 v -7.3575 h 0.7261 v 3.6835 c 0.187,-0.2785 0.4116,-0.4859 0.6742,-0.6218 0.2625,-0.136 0.5667,-0.2042 0.9114,-0.2042 0.5125,0 0.913,0.136 1.2009,0.4083 0.2879,0.272 0.432,0.6501 0.432,1.1345 v 2.9572 h -0.7595 v -2.5587 c 0,-0.4397 -0.0925,-0.7666 -0.2775,-0.9799 -0.1853,-0.2138 -0.471,-0.3207 -0.8572,-0.3207 -0.221,0 -0.4229,0.0402 -0.605,0.1211 -0.1818,0.0808 -0.333,0.1953 -0.4531,0.344 -0.0922,0.1143 -0.1578,0.2438 -0.1974,0.3896 -0.0392,0.1454 -0.059,0.3986 -0.059,0.7595 v 2.2451 z"
       style="fill:#8a1617;fill-rule:evenodd"
       id="path24" />
    <path
       d="m 183.7456,156.4922 c -0.0253,-0.383 -0.1529,-0.6781 -0.382,-0.8855 -0.2296,-0.2071 -0.5438,-0.3109 -0.9423,-0.3109 -0.3606,0 -0.6615,0.1084 -0.9017,0.3252 -0.2408,0.2168 -0.3797,0.5073 -0.4181,0.8712 z m 0.7974,0.6027 h -3.4415 v 0.0666 c 0,0.4651 0.1332,0.841 0.399,1.1272 0.2655,0.2864 0.6125,0.4298 1.0393,0.4298 0.2915,0 0.5537,-0.0786 0.788,-0.235 0.2344,-0.1568 0.4415,-0.3934 0.622,-0.7098 l 0.5647,0.3797 c -0.2184,0.3924 -0.4965,0.6885 -0.8354,0.8878 -0.3386,0.1992 -0.731,0.2989 -1.177,0.2989 -0.6615,0 -1.1964,-0.2182 -1.6044,-0.655 -0.4083,-0.4366 -0.6125,-1.0095 -0.6125,-1.7183 0,-0.6804 0.2025,-1.2373 0.6077,-1.671 0.4051,-0.4333 0.9256,-0.6502 1.5615,-0.6502 0.6424,0 1.151,0.2058 1.5262,0.6171 0.3748,0.4112 0.5624,0.9731 0.5624,1.6852 z"
       style="fill:#8a1617;fill-rule:evenodd"
       id="path26" />
    <path
       d="m 189.0244,155.2865 h 0.4174 c 0.7092,0 1.1861,-0.0832 1.4311,-0.2494 0.2454,-0.1662 0.3681,-0.4563 0.3681,-0.8708 0,-0.443 -0.1259,-0.7549 -0.3775,-0.9355 -0.2512,-0.1801 -0.7251,-0.2703 -1.4217,-0.2703 h -0.4174 z m 0,0.75 v 3.1186 h -0.8069 v -6.9493 h 1.4571 c 0.5093,0 0.8845,0.0269 1.125,0.0805 0.2405,0.0539 0.4495,0.1425 0.6264,0.2659 0.2217,0.1583 0.3947,0.3748 0.52,0.6504 0.1249,0.2753 0.1872,0.5806 0.1872,0.916 0,0.3356 -0.0623,0.6407 -0.1872,0.9163 -0.1253,0.2752 -0.2983,0.4921 -0.52,0.6504 -0.1769,0.1266 -0.3849,0.2165 -0.6238,0.2704 -0.2392,0.0538 -0.6151,0.0808 -1.1276,0.0808 h -0.2328 z"
       style="fill:#8a1617;fill-rule:evenodd"
       id="path28" />
    <path
       d="m 195.4327,156.4922 c -0.0253,-0.383 -0.1529,-0.6781 -0.382,-0.8855 -0.2296,-0.2071 -0.5438,-0.3109 -0.9424,-0.3109 -0.3605,0 -0.6614,0.1084 -0.9016,0.3252 -0.2408,0.2168 -0.3797,0.5073 -0.4181,0.8712 z m 0.7974,0.6027 h -3.4415 v 0.0666 c 0,0.4651 0.1331,0.841 0.3989,1.1272 0.2656,0.2864 0.6125,0.4298 1.0393,0.4298 0.2915,0 0.5537,-0.0786 0.7881,-0.235 0.2344,-0.1568 0.4414,-0.3934 0.622,-0.7098 l 0.5647,0.3797 c -0.2184,0.3924 -0.4966,0.6885 -0.8354,0.8878 -0.3386,0.1992 -0.731,0.2989 -1.177,0.2989 -0.6615,0 -1.1964,-0.2182 -1.6044,-0.655 -0.4083,-0.4366 -0.6125,-1.0095 -0.6125,-1.7183 0,-0.6804 0.2025,-1.2373 0.6076,-1.671 0.4051,-0.4333 0.9257,-0.6502 1.5616,-0.6502 0.6424,0 1.151,0.2058 1.5262,0.6171 0.3748,0.4112 0.5624,0.9731 0.5624,1.6852 z"
       style="fill:#8a1617;fill-rule:evenodd"
       id="path30" />
    <path
       d="m 197.5928,156.9952 c 0,0.459 0.1536,0.8475 0.4603,1.1653 0.3071,0.318 0.679,0.4771 1.1155,0.4771 0.4334,0 0.8024,-0.1591 1.1062,-0.4771 0.3036,-0.3178 0.4557,-0.7063 0.4557,-1.1653 0,-0.4589 -0.1521,-0.8471 -0.4557,-1.1652 -0.3038,-0.3181 -0.6728,-0.4771 -1.1062,-0.4771 -0.4398,0 -0.8124,0.159 -1.1178,0.4771 -0.3054,0.3181 -0.458,0.7063 -0.458,1.1652 z m -0.788,0 c 0,-0.3194 0.0587,-0.6209 0.1755,-0.9042 0.1173,-0.2831 0.2879,-0.5356 0.5126,-0.757 0.2249,-0.2216 0.4797,-0.3901 0.7643,-0.5057 0.285,-0.1155 0.5885,-0.1729 0.9114,-0.1729 0.3165,0 0.6165,0.0584 0.8998,0.1755 0.2831,0.1169 0.5401,0.2879 0.7712,0.5125 0.2246,0.2182 0.3957,0.4691 0.5125,0.7524 0.1172,0.2834 0.1756,0.583 0.1756,0.8994 0,0.3165 -0.0584,0.6148 -0.1756,0.8949 -0.1168,0.2801 -0.2879,0.5294 -0.5125,0.7475 -0.2311,0.2278 -0.4898,0.4018 -0.776,0.5222 -0.2866,0.1205 -0.5846,0.1805 -0.895,0.1805 -0.3196,0 -0.6225,-0.0594 -0.9087,-0.1782 -0.2866,-0.1185 -0.5421,-0.2885 -0.767,-0.5102 -0.2247,-0.2278 -0.3953,-0.481 -0.5126,-0.7595 -0.1168,-0.2785 -0.1755,-0.5775 -0.1755,-0.8972 z"
       style="fill:#8a1617;fill-rule:evenodd"
       id="path32" />
    <path
       d="m 203.2084,156.9952 c 0,0.4872 0.1347,0.8783 0.4034,1.1724 0.269,0.2944 0.6251,0.4418 1.0681,0.4418 0.4334,0 0.7745,-0.1347 1.0231,-0.4038 0.2484,-0.2688 0.3727,-0.6423 0.3727,-1.1201 0,-0.535 -0.1243,-0.9543 -0.3727,-1.2581 -0.2486,-0.3035 -0.5946,-0.4554 -1.0373,-0.4554 -0.4524,0 -0.8085,0.1438 -1.0682,0.432 -0.2593,0.2879 -0.3891,0.6849 -0.3891,1.1912 z m -0.7168,4.277 v -6.4604 h 0.7073 v 0.8163 c 0.1675,-0.3132 0.3892,-0.5534 0.6647,-0.7215 0.2753,-0.1675 0.5824,-0.2512 0.9206,-0.2512 0.6267,0 1.1298,0.2132 1.5096,0.6406 0.3797,0.4272 0.5696,0.9936 0.5696,1.6992 0,0.7183 -0.186,1.2889 -0.5576,1.7112 -0.372,0.4226 -0.8696,0.6339 -1.4931,0.6339 -0.3574,0 -0.6689,-0.0815 -0.9348,-0.2444 -0.2661,-0.1632 -0.4829,-0.406 -0.6504,-0.7287 v 2.905 z"
       style="fill:#8a1617;fill-rule:evenodd"
       id="path34" />
    <path
       d="m 207.8938,151.7976 h 0.7595 v 7.3575 h -0.7595 z"
       style="fill:#8a1617;fill-rule:evenodd"
       id="path36" />
    <path
       d="m 213.0963,156.4922 c -0.0253,-0.383 -0.153,-0.6781 -0.3821,-0.8855 -0.2294,-0.2071 -0.5436,-0.3109 -0.9422,-0.3109 -0.3607,0 -0.6615,0.1084 -0.9017,0.3252 -0.2408,0.2168 -0.3798,0.5073 -0.418,0.8712 z m 0.7975,0.6027 h -3.4415 v 0.0666 c 0,0.4651 0.133,0.841 0.3988,1.1272 0.2655,0.2864 0.6125,0.4298 1.0393,0.4298 0.2915,0 0.5538,-0.0786 0.7881,-0.235 0.2344,-0.1568 0.4415,-0.3934 0.6219,-0.7098 l 0.5648,0.3797 c -0.2185,0.3924 -0.4966,0.6885 -0.8355,0.8878 -0.3386,0.1992 -0.731,0.2989 -1.1769,0.2989 -0.6615,0 -1.1964,-0.2182 -1.6044,-0.655 -0.4084,-0.4366 -0.6125,-1.0095 -0.6125,-1.7183 0,-0.6804 0.2026,-1.2373 0.6076,-1.671 0.4051,-0.4333 0.9258,-0.6502 1.5616,-0.6502 0.6423,0 1.1509,0.2058 1.5261,0.6171 0.375,0.4112 0.5626,0.9731 0.5626,1.6852 z"
       style="fill:#8a1617;fill-rule:evenodd"
       id="path38" />
    <path
       d="m 109.767,118.3018 2.109,-2.3876 c 0.2665,0.6543 0.6947,1.1694 1.2845,1.5453 0.5897,0.3758 1.2522,0.5634 1.9877,0.5634 0.8887,0 1.5917,-0.2099 2.1088,-0.6303 0.5167,-0.42 0.7757,-0.9857 0.7757,-1.6965 0,-0.8404 -0.8608,-1.6765 -2.5817,-2.5087 -0.5573,-0.2668 -0.9978,-0.4849 -1.3211,-0.6543 -1.5511,-0.8083 -2.6258,-1.598 -3.2237,-2.3695 -0.5979,-0.7715 -0.8968,-1.6911 -0.8968,-2.7573 0,-1.4626 0.5797,-2.6644 1.7391,-3.6058 1.1594,-0.9409 2.6642,-1.4119 4.5146,-1.4119 1.0744,0 2.0016,0.188 2.7813,0.5638 0.7797,0.3756 1.4684,0.9634 2.0666,1.7631 l -2.2422,2.1452 c -0.2665,-0.5167 -0.6203,-0.9027 -1.0604,-1.1571 -0.4405,-0.2549 -0.9718,-0.3821 -1.5937,-0.3821 -0.7514,0 -1.3574,0.188 -1.8179,0.5638 -0.4606,0.3756 -0.6907,0.8624 -0.6907,1.4603 0,0.9374 0.9127,1.7936 2.7387,2.5693 0.3635,0.1536 0.6424,0.275 0.8365,0.3636 1.5028,0.6868 2.6154,1.4626 3.339,2.3273 0.7228,0.8643 1.0846,1.85 1.0846,2.9572 0,1.6641 -0.5679,2.9913 -1.703,3.981 -1.1351,0.9896 -2.6603,1.4846 -4.5749,1.4846 -1.3574,0 -2.521,-0.2343 -3.4906,-0.7031 -0.9695,-0.4683 -1.6927,-1.1431 -2.1694,-2.0237 z"
       style="fill:#8a1617;fill-rule:evenodd"
       id="path40" />
    <path
       d="m 131.4369,106.0367 v 14.5191 h -3.8057 v -14.5191 h -4.3387 v -3.224 h 12.4834 v 3.224 z"
       style="fill:#8a1617;fill-rule:evenodd"
       id="path42" />
    <path
       d="m 138.2604,120.5559 v -17.7432 h 10.4472 v 3.1995 h -6.6539 v 3.6482 h 6.6539 v 3.2238 h -6.6539 v 4.4481 h 6.6539 v 3.2236 z"
       style="fill:#8a1617;fill-rule:evenodd"
       id="path44" />
    <path
       d="m 156.2213,110.3755 h 0.57 c 1.5346,0 2.5489,-0.1677 3.0419,-0.5031 0.4927,-0.3352 0.7394,-0.9188 0.7394,-1.751 0,-0.8728 -0.2648,-1.4928 -0.7939,-1.8605 -0.5294,-0.3675 -1.5252,-0.5511 -2.9874,-0.5511 h -0.57 z m 9.0412,10.1805 h -4.3747 l -4.6665,-8.2901 v 8.2901 h -3.7933 v -17.7432 h 5.4298 c 2.1572,0 3.7732,0.4181 4.8476,1.2542 1.0744,0.8365 1.6119,2.0952 1.6119,3.7756 0,1.2201 -0.3674,2.2622 -1.1026,3.1266 -0.7355,0.865 -1.6849,1.3694 -2.8482,1.5151 z"
       style="fill:#8a1617;fill-rule:evenodd"
       id="path46" />
    <path
       d="m 167.4684,120.5559 v -17.7432 h 3.7937 v 14.5196 h 6.0596 v 3.2236 z"
       style="fill:#8a1617;fill-rule:evenodd"
       id="path48" />
    <path
       d="m 179.7821,102.8129 h 3.7933 v 17.7432 h -3.7933 z"
       style="fill:#8a1617;fill-rule:evenodd"
       id="path50" />
    <path
       d="m 187.6234,120.5559 v -17.7432 h 3.9391 l 7.8532,10.326 c 0.2259,0.2908 0.4745,0.7011 0.7456,1.2301 0.2703,0.5294 0.5511,1.1536 0.8422,1.8725 -0.0892,-0.5251 -0.1534,-1.0465 -0.1937,-1.5632 -0.0406,-0.517 -0.061,-1.1636 -0.061,-1.9394 v -9.926 h 3.6239 v 17.7432 h -3.7204 l -8.0719,-10.5196 c -0.2263,-0.2911 -0.4729,-0.7007 -0.7394,-1.2301 -0.2665,-0.5291 -0.5495,-1.1617 -0.8481,-1.8969 0.0886,0.5089 0.1532,1.0241 0.1938,1.545 0.0405,0.5212 0.0603,1.1779 0.0603,1.9695 v 10.1321 z"
       style="fill:#8a1617;fill-rule:evenodd"
       id="path52" />
    <path
       d="m 217.1348,111.1995 h 8.0836 c 0.0163,0.1052 0.0261,0.2182 0.0306,0.3393 0.004,0.1213 0.006,0.3073 0.006,0.5575 0,2.6587 -0.7592,4.8116 -2.2786,6.4598 -1.5193,1.6486 -3.4821,2.4727 -5.8898,2.4727 -2.7556,0 -5.0258,-0.879 -6.8116,-2.6363 -1.7855,-1.7572 -2.6781,-3.989 -2.6781,-6.696 0,-2.6824 0.8968,-4.9002 2.6905,-6.6536 1.7939,-1.7534 4.0601,-2.63 6.7992,-2.63 1.4461,0 2.771,0.3031 3.9752,0.9091 1.2039,0.6057 2.2782,1.5109 3.2237,2.7148 l -2.5573,1.8903 c -0.6382,-0.7916 -1.3087,-1.3632 -2.0119,-1.7147 -0.703,-0.3516 -1.515,-0.5271 -2.4359,-0.5271 -1.7534,0 -3.1552,0.5452 -4.2056,1.6361 -1.0503,1.0906 -1.5751,2.5493 -1.5751,4.3751 0,1.7939 0.5271,3.2418 1.5813,4.3448 1.0546,1.1029 2.4302,1.6544 4.1267,1.6544 1.2441,0 2.2542,-0.2928 3.03,-0.8787 0.7754,-0.5858 1.1636,-1.3512 1.1636,-2.2967 v -0.1937 h -4.2663 z"
       style="fill:#8a1617;fill-rule:evenodd"
       id="path54" />
    <path
       d="m 177.6005,126.9416 c 0,0.9176 -0.744,1.6616 -1.6616,1.6616 -0.9179,0 -1.6618,-0.744 -1.6618,-1.6616 0,-0.9178 0.7439,-1.6618 1.6618,-1.6618 0.9176,0 1.6616,0.744 1.6616,1.6618 z"
       style="fill:#8a1617;fill-rule:evenodd"
       id="path56" />
    <path
       d="m 157.0968,126.9416 c 0,0.9176 -0.744,1.6616 -1.6616,1.6616 -0.9179,0 -1.6618,-0.744 -1.6618,-1.6616 0,-0.9178 0.7439,-1.6618 1.6618,-1.6618 0.9176,0 1.6616,0.744 1.6616,1.6618 z"
       style="fill:#1b1918;fill-rule:evenodd"
       id="path58" />
    <path
       d="m 108.9428,144.759 2.1088,-2.3876 c 0.2668,0.6543 0.6949,1.1695 1.2847,1.5453 0.5897,0.3759 1.2522,0.5635 1.9877,0.5635 0.8887,0 1.5914,-0.21 2.1088,-0.6304 0.5168,-0.42 0.7758,-0.9857 0.7758,-1.6965 0,-0.8404 -0.8608,-1.6765 -2.5817,-2.5087 -0.5577,-0.2668 -0.9979,-0.4849 -1.3211,-0.6544 -1.5512,-0.8082 -2.6258,-1.5979 -3.2237,-2.3694 -0.5982,-0.7715 -0.8968,-1.691 -0.8968,-2.7573 0,-1.4626 0.5796,-2.6644 1.739,-3.6058 1.1595,-0.9409 2.6642,-1.4119 4.5146,-1.4119 1.0744,0 2.0017,0.188 2.7814,0.5638 0.7796,0.3756 1.4683,0.9633 2.0665,1.7631 l -2.2422,2.1452 c -0.2664,-0.5167 -0.6202,-0.9027 -1.0603,-1.1572 -0.4408,-0.2547 -0.9718,-0.382 -1.5937,-0.382 -0.7514,0 -1.3575,0.188 -1.818,0.5638 -0.4605,0.3756 -0.6907,0.8624 -0.6907,1.4603 0,0.9374 0.9128,1.7936 2.7388,2.5693 0.3635,0.1536 0.6423,0.275 0.8361,0.3636 1.5031,0.6868 2.6158,1.4626 3.3393,2.3273 0.7228,0.8643 1.0844,1.8501 1.0844,2.9572 0,1.6641 -0.5677,2.9913 -1.7027,3.9809 -1.1351,0.9897 -2.6603,1.4846 -4.5753,1.4846 -1.357,0 -2.5207,-0.2343 -3.4902,-0.703 -0.9696,-0.4683 -1.6927,-1.1432 -2.1695,-2.0237 z"
       style="fill:#1b1918;fill-rule:evenodd"
       id="path60" />
    <path
       d="m 130.6128,132.4939 v 14.5191 h -3.8057 v -14.5191 h -4.3387 v -3.224 h 12.483 v 3.224 z"
       style="fill:#1b1918;fill-rule:evenodd"
       id="path62" />
    <path
       d="m 145.2651,140.2626 -1.9874,-5.7328 c -0.0564,-0.1698 -0.1292,-0.4606 -0.2181,-0.8724 -0.0889,-0.4123 -0.1814,-0.9169 -0.2788,-1.5152 -0.1052,0.5739 -0.2058,1.089 -0.3028,1.5454 -0.0974,0.4566 -0.1698,0.7617 -0.2185,0.9153 l -1.9147,5.6597 z m -11.2954,6.7506 6.751,-17.7432 h 4.3386 l 6.8477,17.7432 h -4.3146 l -1.4422,-3.7691 h -6.8716 l -1.2366,3.7691 z"
       style="fill:#1b1918;fill-rule:evenodd"
       id="path64" />
    <path
       d="M 153.7733,147.0131 V 129.27 h 10.4473 v 3.1994 h -6.6536 v 3.6483 h 6.6536 v 3.2237 h -6.6536 v 7.6717 z"
       style="fill:#1b1918;fill-rule:evenodd"
       id="path66" />
    <path
       d="m 173.8069,147.0131 v -7.6717 h -6.6535 v -3.2237 h 6.6535 v -3.6483 h -6.6535 V 129.27 h 10.4472 v 17.7431 z"
       style="fill:#1b1918;fill-rule:evenodd"
       id="path68" />
    <path
       d="m 180.6064,129.27 h 3.7934 v 17.7432 h -3.7934 z"
       style="fill:#1b1918;fill-rule:evenodd"
       id="path70" />
    <path
       d="M 188.4475,147.0131 V 129.27 h 3.9388 l 7.8536,10.3259 c 0.2258,0.2907 0.4744,0.7011 0.7455,1.2301 0.2704,0.5294 0.5511,1.1536 0.8423,1.8725 -0.0892,-0.5251 -0.1535,-1.0464 -0.1941,-1.5632 -0.0402,-0.517 -0.0607,-1.1636 -0.0607,-1.9394 V 129.27 h 3.6239 v 17.7431 h -3.7206 l -8.072,-10.5196 c -0.2259,-0.2911 -0.4726,-0.7007 -0.7391,-1.2301 -0.2664,-0.5291 -0.5494,-1.1617 -0.8485,-1.8969 0.089,0.5089 0.1536,1.0241 0.1942,1.545 0.0405,0.5213 0.0603,1.1779 0.0603,1.9695 v 10.1321 z"
       style="fill:#1b1918;fill-rule:evenodd"
       id="path72" />
    <path
       d="m 217.9589,137.6567 h 8.0837 c 0.0162,0.1052 0.026,0.2182 0.0302,0.3392 0.004,0.1214 0.006,0.3074 0.006,0.5576 0,2.6587 -0.7595,4.8116 -2.2786,6.4598 -1.5194,1.6486 -3.4821,2.4727 -5.8902,2.4727 -2.7553,0 -5.0257,-0.879 -6.8112,-2.6363 -1.7859,-1.7572 -2.6784,-3.989 -2.6784,-6.696 0,-2.6824 0.897,-4.9002 2.6903,-6.6536 1.7943,-1.7534 4.0602,-2.6301 6.7993,-2.6301 1.4464,0 2.7713,0.3032 3.9755,0.9092 1.2039,0.6057 2.2782,1.5109 3.2234,2.7148 l -2.557,1.8903 c -0.6382,-0.7916 -1.3091,-1.3632 -2.0118,-1.7147 -0.703,-0.3516 -1.5151,-0.5271 -2.4359,-0.5271 -1.7534,0 -3.1553,0.5452 -4.2057,1.6362 -1.0502,1.0905 -1.5754,2.5492 -1.5754,4.375 0,1.7939 0.5274,3.2418 1.5816,4.3448 1.0543,1.1029 2.4298,1.6544 4.1268,1.6544 1.2441,0 2.2542,-0.2928 3.0299,-0.8787 0.7754,-0.5858 1.1633,-1.3512 1.1633,-2.2967 v -0.1937 h -4.266 z"
       style="fill:#1b1918;fill-rule:evenodd"
       id="path74" />
    <path
       d="m 70.7004,101.1531 c 0,0.3772 -0.0376,0.7433 -0.1133,1.0978 -0.5053,2.4444 -2.6706,4.2775 -5.2621,4.2775 -1.8709,0 -3.5155,-0.9545 -4.4772,-2.4028 -0.5697,-0.8488 -0.8978,-1.8709 -0.8978,-2.9725 0,-2.9686 2.4064,-5.3754 5.375,-5.3754 2.9686,0 5.3754,2.4068 5.3754,5.3754 z"
       style="fill:#1b1918;fill-rule:evenodd"
       id="path76" />
    <path
       d="m 82.4293,110.8339 -15.0017,11.4859 c -1.1918,0.9166 -2.6177,1.3655 -4.0361,1.3655 -1.7161,0 -3.425,-0.6563 -4.7075,-1.9426 l -3.8326,-3.8323 c 0.6866,0.1396 1.3957,0.2113 2.1238,0.2113 2.78,0 5.315,-1.0676 7.2085,-2.8216 l 13.6586,-10.4563 c 1.6561,-1.2636 4.0213,-0.9507 5.2888,0.7017 1.2671,1.6561 0.9543,4.0209 -0.7018,5.2884 z"
       style="fill:#1b1918;fill-rule:evenodd"
       id="path78" />
    <path
       d="m 64.1837,115.3 c -1.8936,1.7541 -4.4286,2.8216 -7.2083,2.8216 -0.7284,0 -1.4373,-0.0717 -2.1238,-0.2113 l -3.7683,-3.7684 c -1.4749,-1.471 -1.4749,-3.8624 0,-5.3334 1.4748,-1.4714 3.8625,-1.4714 5.3334,0 l 7.0464,7.0459 z"
       style="fill:#e7bb00;fill-rule:evenodd"
       id="path80" />
    <path
       d="m 64.1837,115.3 c -1.8936,1.7541 -4.4286,2.8216 -7.2083,2.8216 -0.7284,0 -1.4373,-0.0717 -2.1238,-0.2113 l -3.7683,-3.7684 c -1.4749,-1.471 -1.4749,-3.8624 0,-5.3334 1.4748,-1.4714 3.8625,-1.4714 5.3334,0 l 7.0464,7.0459 z"
       style="fill:#1b1918;fill-rule:evenodd"
       id="path82" />
    <path
       d="m 70.7004,101.1531 c 0,0.3772 -0.0376,0.7433 -0.1133,1.0978 -0.5053,2.4444 -2.6706,4.2775 -5.2621,4.2775 -1.8709,0 -3.5155,-0.9545 -4.4772,-2.4028 -0.5697,-0.8488 -0.8978,-1.8709 -0.8978,-2.9725 0,-2.9686 2.4064,-5.3754 5.375,-5.3754 2.9686,0 5.3754,2.4068 5.3754,5.3754 z"
       style="fill:#398b29;fill-rule:evenodd"
       id="path84" />
    <path
       d="m 82.4293,110.8339 -15.0017,11.4859 c -1.1918,0.9166 -2.6177,1.3655 -4.0361,1.3655 -1.7161,0 -3.425,-0.6563 -4.7075,-1.9426 l -3.8326,-3.8323 c 0.6866,0.1396 1.3957,0.2113 2.1238,0.2113 2.78,0 5.315,-1.0676 7.2085,-2.8216 l 13.6586,-10.4563 c 1.6561,-1.2636 4.0213,-0.9507 5.2888,0.7017 1.2671,1.6561 0.9543,4.0209 -0.7018,5.2884 z"
       style="fill:#8a1617;fill-rule:evenodd"
       id="path86" />
    <path
       d="m 64.1837,115.3 c -1.8936,1.7541 -4.4286,2.8216 -7.2083,2.8216 -0.7284,0 -1.4373,-0.0717 -2.1238,-0.2113 l -3.7683,-3.7684 c -1.4749,-1.471 -1.4749,-3.8624 0,-5.3334 1.4748,-1.4714 3.8625,-1.4714 5.3334,0 l 7.0464,7.0459 z"
       style="fill:#e7bb00;fill-rule:evenodd"
       id="path88" />
    <path
       d="m 64.1837,115.3 c -1.8936,1.7541 -4.4286,2.8216 -7.2083,2.8216 -0.7284,0 -1.4373,-0.0717 -2.1238,-0.2113 l -3.7683,-3.7684 c -1.4749,-1.471 -1.4749,-3.8624 0,-5.3334 1.4748,-1.4714 3.8625,-1.4714 5.3334,0 l 7.0464,7.0459 z"
       style="fill:#1b1918;fill-rule:evenodd"
       id="path90" />
    <path
       d="m 63.1858,158.0465 c 0,-0.3775 0.0377,-0.7434 0.1133,-1.0978 0.5053,-2.4444 2.6706,-4.2775 5.2621,-4.2775 1.8708,0 3.5154,0.9542 4.4772,2.4028 0.5696,0.8488 0.8982,1.8709 0.8982,2.9725 0,2.9686 -2.4068,5.3754 -5.3754,5.3754 -2.9686,0 -5.3754,-2.4068 -5.3754,-5.3754 z"
       style="fill:#398b29;fill-rule:evenodd"
       id="path92" />
    <path
       d="m 51.4568,148.3657 15.0018,-11.4862 c 1.1919,-0.9163 2.6177,-1.3652 4.0362,-1.3652 1.7164,0 3.4249,0.6563 4.7073,1.9426 l 3.8327,3.8323 c -0.6865,-0.1396 -1.3957,-0.2114 -2.1237,-0.2114 -2.7801,0 -5.3151,1.0676 -7.2087,2.8216 l -13.6586,10.4564 c -1.656,1.2635 -4.0209,0.9503 -5.2884,-0.7017 -1.2674,-1.6561 -0.9545,-4.0209 0.7014,-5.2884 z"
       style="fill:#8a1617;fill-rule:evenodd"
       id="path94" />
    <path
       d="m 69.7026,143.8995 c 1.8936,-1.754 4.4286,-2.8216 7.2083,-2.8216 0.7283,0 1.4372,0.0718 2.1237,0.2114 l 3.7683,3.7683 c 1.475,1.471 1.475,3.8625 0,5.3335 -1.4749,1.4713 -3.8625,1.4713 -5.3335,0 l -7.0463,-7.0459 z"
       style="fill:#e7bb00;fill-rule:evenodd"
       id="path96" />
    <path
       d="m 69.7026,143.8995 c 1.8936,-1.754 4.4286,-2.8216 7.2083,-2.8216 0.7283,0 1.4372,0.0718 2.1237,0.2114 l 3.7683,3.7683 c 1.475,1.471 1.475,3.8625 0,5.3335 -1.4749,1.4713 -3.8625,1.4713 -5.3335,0 l -7.0463,-7.0459 z"
       style="fill:#1b1918;fill-rule:evenodd"
       id="path98" />
    <path
       d="m 38.4965,125.8424 c 0.3772,0 0.7433,0.0379 1.0978,0.1133 2.4443,0.5054 4.2776,2.6706 4.2776,5.262 0,1.8709 -0.9546,3.5156 -2.4029,4.4773 -0.8488,0.5697 -1.8709,0.8981 -2.9725,0.8981 -2.9686,0 -5.3754,-2.4068 -5.3754,-5.3754 0,-2.9686 2.4068,-5.3753 5.3754,-5.3753 z"
       style="fill:#e7bb00;fill-rule:evenodd"
       id="path100" />
    <path
       d="m 48.1771,114.1136 11.4863,15.0018 c 0.9166,1.1918 1.3655,2.6177 1.3655,4.0358 0,1.7164 -0.6563,3.4253 -1.943,4.7077 l -3.8322,3.8323 c 0.1395,-0.6865 0.2113,-1.3953 0.2113,-2.1234 0,-2.7803 -1.0676,-5.315 -2.8216,-7.2086 L 42.187,118.7002 c -1.2635,-1.6557 -0.9503,-4.0209 0.7018,-5.2884 1.656,-1.2671 4.0208,-0.9542 5.2883,0.7018 z"
       style="fill:#1b1918;fill-rule:evenodd"
       id="path102" />
    <path
       d="m 52.6434,132.3592 c 1.754,1.8936 2.8216,4.4285 2.8216,7.2085 0,0.7281 -0.0717,1.437 -0.2113,2.1235 l -3.7684,3.7684 c -1.4713,1.4751 -3.8624,1.4751 -5.3338,0 -1.471,-1.475 -1.471,-3.8626 0,-5.3336 l 7.0464,-7.0462 z"
       style="fill:#e7bb00;fill-rule:evenodd"
       id="path104" />
    <path
       d="m 52.6434,132.3592 c 1.754,1.8936 2.8216,4.4285 2.8216,7.2085 0,0.7281 -0.0717,1.437 -0.2113,2.1235 l -3.7684,3.7684 c -1.4713,1.4751 -3.8624,1.4751 -5.3338,0 -1.471,-1.475 -1.471,-3.8626 0,-5.3336 l 7.0464,-7.0462 z"
       style="fill:#1b1918;fill-rule:evenodd"
       id="path106" />
    <path
       d="m 48.1771,114.1136 11.4863,15.0018 c 0.9166,1.1918 1.3655,2.6177 1.3655,4.0358 0,1.7164 -0.6563,3.4253 -1.943,4.7077 l -3.8322,3.8323 c 0.1395,-0.6865 0.2113,-1.3953 0.2113,-2.1234 0,-2.7803 -1.0676,-5.315 -2.8216,-7.2086 L 42.187,118.7002 c -1.2635,-1.6557 -0.9503,-4.0209 0.7018,-5.2884 1.656,-1.2671 4.0208,-0.9542 5.2883,0.7018 z"
       style="fill:#8a1617;fill-rule:evenodd"
       id="path108" />
    <path
       d="m 52.6434,132.3592 c 1.754,1.8936 2.8216,4.4285 2.8216,7.2085 0,0.7281 -0.0717,1.437 -0.2113,2.1235 l -3.7684,3.7684 c -1.4713,1.4751 -3.8624,1.4751 -5.3338,0 -1.471,-1.475 -1.471,-3.8626 0,-5.3336 l 7.0464,-7.0462 z"
       style="fill:#398b29;fill-rule:evenodd"
       id="path110" />
    <path
       d="m 52.6434,132.3592 c 1.754,1.8936 2.8216,4.4285 2.8216,7.2085 0,0.7281 -0.0717,1.437 -0.2113,2.1235 l -3.7684,3.7684 c -1.4713,1.4751 -3.8624,1.4751 -5.3338,0 -1.471,-1.475 -1.471,-3.8626 0,-5.3336 l 7.0464,-7.0462 z"
       style="fill:#1b1918;fill-rule:evenodd"
       id="path112" />
    <path
       d="m 95.3897,133.357 c -0.3771,0 -0.743,-0.0376 -1.0977,-0.1133 -2.4445,-0.5054 -4.2776,-2.6707 -4.2776,-5.262 0,-1.871 0.9546,-3.5156 2.4028,-4.4774 0.8491,-0.5696 1.8712,-0.8977 2.9725,-0.8977 2.9686,0 5.3754,2.4065 5.3754,5.3751 0,2.9686 -2.4068,5.3753 -5.3754,5.3753 z"
       style="fill:#e7bb00;fill-rule:evenodd"
       id="path114" />
    <path
       d="M 85.709,145.0859 74.2228,130.0842 c -0.9162,-1.1918 -1.3655,-2.6178 -1.3655,-4.0361 0,-1.7161 0.6567,-3.425 1.9429,-4.7074 l 3.8324,-3.8326 c -0.1396,0.6864 -0.2113,1.3956 -0.2113,2.1237 0,2.78 1.0675,5.3149 2.8215,7.2085 l 10.4564,13.6587 c 1.2635,1.656 0.9504,4.0212 -0.7017,5.2887 -1.6561,1.2672 -4.021,0.9543 -5.2885,-0.7018 z"
       style="fill:#8a1617;fill-rule:evenodd"
       id="path116" />
    <path
       d="m 81.2429,126.8404 c -1.754,-1.8937 -2.8216,-4.4285 -2.8216,-7.2086 0,-0.7281 0.0718,-1.4373 0.2114,-2.1237 l 3.7679,-3.7684 c 1.4714,-1.4749 3.8629,-1.4749 5.3339,0 1.4713,1.4749 1.4713,3.8628 0,5.3338 l -7.046,7.0463 z"
       style="fill:#398b29;fill-rule:evenodd"
       id="path118" />
    <path
       d="m 81.2429,126.8404 c -1.754,-1.8937 -2.8216,-4.4285 -2.8216,-7.2086 0,-0.7281 0.0718,-1.4373 0.2114,-2.1237 l 3.7679,-3.7684 c 1.4714,-1.4749 3.8629,-1.4749 5.3339,0 1.4713,1.4749 1.4713,3.8628 0,5.3338 l -7.046,7.0463 z"
       style="fill:#1b1918;fill-rule:evenodd"
       id="path120" />
    <path
       d="m 60.8477,104.1255 c -0.5696,-0.8488 -0.8978,-1.8709 -0.8978,-2.9725 0,-2.9686 2.4067,-5.375 5.3754,-5.375 2.9686,0 5.375,2.4064 5.375,5.375 0,0.3772 -0.0377,0.7433 -0.113,1.0978 -0.5054,2.4443 -2.6707,4.2775 -5.262,4.2775 -1.871,0 -3.5159,-0.9545 -4.4776,-2.4028 z"
       style="fill:#1b1918;fill-rule:evenodd"
       id="path122" />
    <path
       d="m 68.5612,152.6711 c -2.5915,0 -4.7568,1.8332 -5.2621,4.2776 -0.0756,0.3544 -0.1133,0.7203 -0.1133,1.0978 0,2.9686 2.4068,5.3753 5.3754,5.3753 2.9686,0 5.375,-2.4067 5.375,-5.3753 0,-1.1017 -0.3282,-2.1238 -0.8978,-2.9726 -0.9618,-1.4485 -2.6064,-2.4028 -4.4772,-2.4028 z"
       style="fill:#1b1918;fill-rule:evenodd"
       id="path124" />
    <path
       d="m 39.5942,125.9555 c -0.3544,-0.0753 -0.7206,-0.1133 -1.0978,-0.1133 -2.9686,0 -5.375,2.4068 -5.375,5.3754 0,2.9686 2.4064,5.3754 5.375,5.3754 1.1016,0 2.1238,-0.3281 2.9725,-0.8977 1.4483,-0.9622 2.403,-2.6065 2.403,-4.4777 0,-2.591 -1.8333,-4.7563 -4.2777,-5.2621 z"
       style="fill:#1b1918;fill-rule:evenodd"
       id="path126" />
    <path
       d="m 95.3897,122.6066 c -1.1013,0 -2.1237,0.3281 -2.9725,0.8977 -1.4482,0.9618 -2.4028,2.6064 -2.4028,4.4777 0,2.591 1.8331,4.7563 4.2776,5.2617 0.3547,0.0757 0.7206,0.1133 1.0977,0.1133 2.9686,0 5.3754,-2.4064 5.3754,-5.375 0,-2.9686 -2.4068,-5.3754 -5.3754,-5.3754 z"
       style="fill:#1b1918;fill-rule:evenodd"
       id="path128" />
  </g>
  <path
     d="M 0,-1e-4 V 259.1998 H 259.2 V -1e-4 Z"
     style="fill:none"
     id="path131" />
</svg>
